<svg width="13" height="13" viewBox="0 0 13 13" fill="none" xmlns="http://www.w3.org/2000/svg">
<g clip-path="url(#clip0_6_4569)">
<g clip-path="url(#clip1_6_4569)">
<path fill-rule="evenodd" clip-rule="evenodd" d="M1.96701 5.77703C1.96701 4.55103 2.43001 3.47203 3.24701 2.70003C4.06201 1.93003 5.25301 1.44603 6.75001 1.44603C8.24701 1.44603 9.43801 1.93003 10.253 2.70003C11.07 3.47203 11.533 4.55103 11.533 5.77703C11.533 6.76303 11.369 7.58503 11.107 8.29803L10.964 7.68003C10.9441 7.59736 10.8933 7.52544 10.822 7.47903L10.437 7.22403C10.3412 7.16127 10.2272 7.13231 10.1131 7.14173C9.99893 7.15115 9.89122 7.19842 9.80701 7.27603C9.52801 7.54403 9.18501 7.91103 8.66301 8.72003C8.31448 9.25771 8.02925 9.83386 7.81301 10.437C7.74301 10.633 7.84701 10.839 8.04501 10.931L8.721 11.245C8.77686 11.2708 8.83813 11.2828 8.89959 11.2798C8.96105 11.2768 9.02089 11.2591 9.07401 11.228L9.49601 10.978C9.51543 10.9667 9.53752 10.9607 9.56001 10.9607C9.5825 10.9607 9.60458 10.9667 9.62401 10.978L10.029 11.218C10.0804 11.2482 10.1409 11.2591 10.1995 11.2486C10.2582 11.2382 10.3112 11.2071 10.349 11.161C10.556 10.895 10.959 10.372 11.174 10.052C11.39 9.73203 11.637 9.20803 11.758 8.94203C11.7756 8.90307 11.7806 8.85962 11.7723 8.8177C11.7641 8.77577 11.743 8.73745 11.712 8.70803C12.038 7.89103 12.25 6.93603 12.25 5.77703C12.25 4.39303 11.726 3.14103 10.765 2.23303C9.80201 1.32303 8.42001 0.780029 6.75001 0.780029C5.07901 0.780029 3.69801 1.32403 2.73501 2.23303C1.77401 3.14003 1.25001 4.39303 1.25001 5.77703C1.24038 6.79293 1.43454 7.80046 1.82101 8.74003C1.80049 8.76912 1.78795 8.80306 1.78461 8.8385C1.78128 8.87394 1.78728 8.90963 1.80201 8.94203C1.92201 9.20803 2.17001 9.73203 2.38601 10.052C2.60101 10.372 3.00301 10.895 3.21101 11.162C3.24893 11.208 3.302 11.2388 3.36067 11.2491C3.41934 11.2594 3.47974 11.2483 3.53101 11.218L3.93601 10.978C3.95543 10.9667 3.97752 10.9607 4.00001 10.9607C4.02249 10.9607 4.04458 10.9667 4.06401 10.978L4.48601 11.228C4.53907 11.2592 4.59892 11.2771 4.66041 11.2801C4.7219 11.283 4.78319 11.271 4.83901 11.245L5.51501 10.931C5.71301 10.839 5.81601 10.633 5.74701 10.437C5.53076 9.83386 5.24553 9.25771 4.89701 8.72003C4.37401 7.91103 4.03201 7.54403 3.75301 7.27603C3.66879 7.19842 3.56108 7.15115 3.44694 7.14173C3.33281 7.13231 3.2188 7.16127 3.12301 7.22403L2.73801 7.47903C2.66695 7.5252 2.61617 7.59672 2.59601 7.67903L2.45601 8.28703C2.45107 8.30683 2.44068 8.32485 2.42601 8.33903C2.11418 7.52123 1.95849 6.65221 1.96701 5.77703Z" fill="#5C5C5C"/>
</g>
</g>
<defs>
<clipPath id="clip0_6_4569">
<rect width="12" height="12" fill="white" transform="translate(0.5 0.280029)"/>
</clipPath>
<clipPath id="clip1_6_4569">
<rect width="12" height="11" fill="white" transform="translate(0.5 0.280029)"/>
</clipPath>
</defs>
</svg>
