<svg xmlns="http://www.w3.org/2000/svg" width="28" height="29" fill="none"><path fill="#121212" d="M14.1 22.65q-1.204-.001-2.05-.656-.848-.66-1.295-1.912-.447-1.257-.448-3.036 0-1.77.448-3.02.453-1.258 1.3-1.918.852-.666 2.045-.666t2.04.666q.852.66 1.3 1.917.453 1.253.453 3.02 0 1.78-.448 3.037-.447 1.252-1.294 1.912-.847.655-2.05.655m0-1.173q1.193 0 1.854-1.15.66-1.15.66-3.282 0-1.416-.303-2.413-.3-.996-.863-1.518a1.9 1.9 0 0 0-1.348-.522q-1.182 0-1.848 1.167-.666 1.161-.666 3.287 0 1.416.298 2.407.298.99.858 1.508.564.516 1.358.516"/><g clip-path="url(#a)"><mask id="b" width="28" height="28" x="0" y="0" maskUnits="userSpaceOnUse" style="mask-type:luminance"><path fill="#fff" d="M.09.51h27.035v27.034H.091z"/></mask><g mask="url(#b)"><path stroke="#121212" stroke-width="1.482" d="M18.47 5.686c0-2.116-2.177-3.831-4.862-3.831S8.747 3.57 8.747 5.685m-5.314.463h20.35c.386 0 .755.16 1.027.448.273.288.426.678.426 1.085v13.505c0 .585.106 1.166.313 1.707l.597 1.578A1.61 1.61 0 0 1 26 25.9c-.13.205-.31.375-.522.494-.21.118-.444.179-.682.179H2.42a1.4 1.4 0 0 1-.682-.179 1.5 1.5 0 0 1-.522-.494 1.61 1.61 0 0 1-.146-1.43l.597-1.576a4.8 4.8 0 0 0 .312-1.708V7.681c0-.407.154-.797.426-1.085a1.42 1.42 0 0 1 1.028-.448Z"/></g></g><defs><clipPath id="a"><path fill="#fff" d="M0 .5h28v28H0z"/></clipPath></defs></svg>