<svg xmlns="http://www.w3.org/2000/svg" width="41" height="39" fill="none"><g clip-path="url(#a)"><g fill="#231F20" clip-path="url(#b)"><path fill-rule="evenodd" d="M38.972.69H32.52c-.774 0-1.42.517-1.548 1.291l-1.678 7.613c0 .13-.129.258-.387.258H2.197C.52 9.852.391 10.626.52 11.53l3.355 14.193c.258 1.29.774 1.549 1.677 1.549h21.549c1.16 0 1.548-.775 1.677-1.29l4.903-21.807c0-.13.13-.258.258-.258h4.904c1.032.129 1.677-.645 1.677-1.549S39.875.691 38.972.691" clip-rule="evenodd"/><path d="M9.552 38.497a3.355 3.355 0 1 0 0-6.71 3.355 3.355 0 0 0 0 6.71M24.907 38.497a3.355 3.355 0 1 0 0-6.71 3.355 3.355 0 0 0 0 6.71"/></g></g><defs><clipPath id="a"><path fill="#fff" d="M.52.53h40v38h-40z"/></clipPath><clipPath id="b"><path fill="#fff" d="M.52.69h40v37.678h-40z"/></clipPath></defs></svg>