<svg xmlns="http://www.w3.org/2000/svg" width="24" height="24" fill="none"><g clip-path="url(#a)"><g fill="#121212" clip-path="url(#b)"><path fill-rule="evenodd" d="M.553 12.654c0-6.167 5-11.167 11.167-11.167s11.167 5 11.167 11.167-5 11.167-11.167 11.167-11.167-5-11.167-11.167m11.16.18c1.646 0 2.985-1.293 2.985-2.882s-1.339-2.88-2.986-2.88c-1.646 0-2.985 1.291-2.985 2.88 0 1.59 1.34 2.881 2.985 2.881zm2.948 1.66a5.7 5.7 0 0 1-1.733.692l1.669 1.61a.824.824 0 0 1 0 1.194.896.896 0 0 1-1.237 0l-1.64-1.583-1.64 1.583a.9.9 0 0 1-.619.247.9.9 0 0 1-.618-.247.824.824 0 0 1 0-1.193l1.669-1.61a5.7 5.7 0 0 1-1.734-.694.826.826 0 0 1-.273-1.165.89.89 0 0 1 1.205-.265 3.9 3.9 0 0 0 4.02 0 .89.89 0 0 1 1.205.265.827.827 0 0 1-.274 1.165" clip-rule="evenodd"/><path d="M11.712 8.76c.682 0 1.236.535 1.236 1.193 0 .657-.554 1.193-1.236 1.193-.68 0-1.236-.536-1.236-1.193 0-.658.555-1.193 1.236-1.193"/></g></g><defs><clipPath id="a"><path fill="#fff" d="M.22.92h23v23h-23z"/></clipPath><clipPath id="b"><path fill="#fff" d="M.22.92h23v23h-23z"/></clipPath></defs></svg>