<svg width="10" height="12" viewBox="0 0 10 12" fill="none" xmlns="http://www.w3.org/2000/svg">
<g clip-path="url(#clip0_6_4567)">
<path fill-rule="evenodd" clip-rule="evenodd" d="M1 1.28003C1 1.14742 1.05268 1.02024 1.14645 0.926476C1.24021 0.832708 1.36739 0.780029 1.5 0.780029H8.5C8.63261 0.780029 8.75979 0.832708 8.85355 0.926476C8.94732 1.02024 9 1.14742 9 1.28003V10.78C9 10.9126 8.94732 11.0398 8.85355 11.1336C8.75979 11.2274 8.63261 11.28 8.5 11.28H1.5C1.36739 11.28 1.24021 11.2274 1.14645 11.1336C1.05268 11.0398 1 10.9126 1 10.78V1.28003ZM1.86 1.60903H8.145V9.35903H1.86V1.60903ZM5 10.747C5.276 10.747 5.5 10.531 5.5 10.264C5.49896 10.1994 5.4852 10.1356 5.4595 10.0763C5.43381 10.0171 5.39669 9.9634 5.35026 9.91846C5.30383 9.87351 5.249 9.83815 5.1889 9.8144C5.1288 9.79065 5.06461 9.77897 5 9.78003C4.724 9.78003 4.5 9.99603 4.5 10.264C4.5 10.531 4.724 10.747 5 10.747Z" fill="#5C5C5C"/>
</g>
<defs>
<clipPath id="clip0_6_4567">
<rect width="9" height="11" fill="white" transform="translate(0.5 0.280029)"/>
</clipPath>
</defs>
</svg>
