<svg xmlns="http://www.w3.org/2000/svg" width="25" height="26" fill="none"><path fill="#121212" d="m2.724 11.009 18.797-8.753q.5-.24.937-.195.434.035.708.298.285.25.343.674.056.41-.183.937L14.56 22.686a1.4 1.4 0 0 1-.457.583q-.285.217-.617.24a1.17 1.17 0 0 1-.605-.092 1.06 1.06 0 0 1-.468-.411q-.184-.286-.184-.72l-.01-8.798q0-.091-.047-.126-.033-.045-.125-.046l-8.866-.022a1.4 1.4 0 0 1-.686-.183 1.16 1.16 0 0 1-.434-.446c-.09-.184-.13-.39-.114-.594a1.2 1.2 0 0 1 .206-.594q.182-.286.571-.468m1.428.925 8.719-.035q.354 0 .548.207.195.194.194.514l-.046 8.741q0 .046.035.057.045.012.057-.034l8.18-17.563q.048-.091 0-.125-.044-.036-.124 0L4.14 11.842q-.057.024-.057.058.01.034.069.034z"/></svg>