<svg xmlns="http://www.w3.org/2000/svg" width="110" height="28" fill="none"><g clip-path="url(#a)"><g clip-path="url(#b)"><path fill="#000" d="M105.493 13.988c0-6.035-2.926-9.17-5.588-9.17-1.49 0-2.42.666-4.18 2.71-1.111 1.296-3.09 4.21-4.472 6.3 1.589 2.415 3.244 4.909 4.184 6.055 1.586 1.933 2.503 3.064 4.402 3.064 2.917 0 5.653-3.382 5.653-8.958zm-18.599.26c-1.731-2.502-3.476-5.01-4.455-6.204-1.586-1.933-2.373-3.207-4.274-3.207-2.913 0-5.651 3.382-5.651 8.959 0 6.036 2.926 9.171 5.589 9.171 1.488 0 2.419-.667 4.179-2.71 1.128-1.311 3.196-4.083 4.612-6.01m22.803-.693c0 8.604-4.456 13.549-9.891 13.549-2.7 0-5.362-1.54-7.554-4.42-1.035-1.354-2.212-3.095-3.28-4.77-1.056 1.455-2.78 3.788-4.222 5.533-2.045 2.471-4.083 3.657-6.745 3.657-5.04 0-9.697-4.181-9.697-12.88C68.309 5.4 72.763.677 78.199.677c2.701 0 5 1.521 7.28 4.66q1.811 2.488 3.581 5.005c1.015-1.621 2.728-4.24 4.197-6.005C95.31 1.869 97.34.679 100 .679c5.04 0 9.697 4.182 9.697 12.879zM16.19 22.117 7.424 1.353H.692v25.315h4.115V6.208l8.817 20.459h4.69l8.816-20.4v20.4h4.274V1.351h-6.276l-8.94 20.766zM57.209 1.353h4.816v25.315H57.81V7.154L44.323 26.667h-4.71V1.351h4.218v19.402L57.21 1.351z"/></g></g><defs><clipPath id="a"><path fill="#fff" d="M0 .27h110v27H0z"/></clipPath><clipPath id="b"><path fill="#fff" d="M0 .392h110v26.757H0z"/></clipPath></defs></svg>