<svg xmlns="http://www.w3.org/2000/svg" width="51" height="27" fill="none"><g clip-path="url(#a)"><g clip-path="url(#b)"><g clip-path="url(#c)"><mask id="d" width="51" height="27" x="0" y="0" maskUnits="userSpaceOnUse" style="mask-type:luminance"><path fill="#fff" d="M.697.17h49.986v26.08H.697z"/></mask><g mask="url(#d)" style="mix-blend-mode:multiply"><path fill="#fff" d="M.697.17h49.986v26.08H.697z"/><path fill="#FF5F00" d="M29.802 20.895h-8.223V6.587h8.223z"/><path fill="#EB001B" d="M22.1 13.74c0-2.901 1.404-5.487 3.59-7.153a9.55 9.55 0 0 0-5.808-1.945c-5.19 0-9.397 4.072-9.397 9.098s4.207 9.1 9.397 9.1a9.55 9.55 0 0 0 5.808-1.945c-2.186-1.666-3.59-4.252-3.59-7.155"/><path fill="#F79E1B" d="M40.895 13.74c0 5.026-4.207 9.1-9.397 9.1a9.56 9.56 0 0 1-5.808-1.945c2.186-1.666 3.59-4.252 3.59-7.155 0-2.901-1.404-5.487-3.59-7.153a9.56 9.56 0 0 1 5.808-1.945c5.19 0 9.397 4.072 9.397 9.098"/></g></g></g></g><defs><clipPath id="a"><path fill="#fff" d="M.69.17h50v26.08h-50z"/></clipPath><clipPath id="b"><path fill="#fff" d="M.69.17h50v26.08h-50z"/></clipPath><clipPath id="c"><path fill="#fff" d="M.697.17h49.987v26.08H.697z"/></clipPath></defs></svg>