<svg xmlns="http://www.w3.org/2000/svg" width="51" height="27" fill="none"><g clip-path="url(#a)"><g clip-path="url(#b)" style="mix-blend-mode:multiply"><path fill="#fff" d="M.697.17h49.986v26.08H.697z"/><path fill="url(#c)" d="M43.003 7.092h-8.391c.488 2.684 3.177 5.21 6.11 5.21h6.68c.081-.238.081-.631.081-.869 0-2.369-2.036-4.341-4.48-4.341"/><path fill="#4FAD50" d="M35.345 12.775v6.553h4.073v-3.474h3.585c1.956 0 3.666-1.342 4.236-3.079zm-14.34-5.683v12.156h3.584s.897 0 1.386-.869c2.444-4.656 3.177-6.078 3.177-6.078h.49v6.947h4.072V7.092h-3.585s-.896.08-1.384.868c-2.038 4.026-3.178 6.078-3.178 6.078h-.489V7.092zM3.897 19.328V7.17H7.97s1.14 0 1.793 1.737c1.629 4.578 1.792 5.21 1.792 5.21s.326-1.105 1.792-5.21C14 7.17 15.14 7.17 15.14 7.17h4.073v12.157h-4.075v-6.553h-.49l-2.28 6.553h-1.793l-2.278-6.553h-.49v6.553z"/></g></g><defs><clipPath id="a"><path fill="#fff" d="M.69.17h50v26.08h-50z"/></clipPath><clipPath id="b"><path fill="#fff" d="M.697.17h49.987v26.08H.697z"/></clipPath><linearGradient id="c" x1="34.597" x2="47.455" y1="9.733" y2="9.733" gradientUnits="userSpaceOnUse"><stop stop-color="#27B1E6"/><stop offset="1" stop-color="#148ACA"/></linearGradient></defs></svg>