<svg width="15" height="13" viewBox="0 0 15 13" fill="none" xmlns="http://www.w3.org/2000/svg">
<g clip-path="url(#clip0_6_4562)">
<g clip-path="url(#clip1_6_4562)">
<path fill-rule="evenodd" clip-rule="evenodd" d="M13.875 1.38505L13.615 1.30505C12.5219 0.950675 11.372 0.804812 10.225 0.875054C9.215 0.955054 8.235 1.22505 7.505 1.80505C6.765 1.23505 5.785 0.955054 4.775 0.875054C3.645 0.795054 2.425 0.965054 1.385 1.29505L1.125 1.37505V9.96505C1.125 9.96505 1.135 9.99505 1.135 10.0151H1.125V10.4051C1.125 10.7451 1.465 10.9651 1.765 10.8551C2.655 10.5351 3.715 10.5451 4.715 10.7251C5.715 10.9151 6.645 11.2751 7.265 11.6351C7.415 11.7251 7.595 11.7251 7.745 11.6351C8.365 11.2751 9.285 10.9051 10.295 10.7251C11.305 10.5351 12.355 10.5351 13.245 10.8551C13.545 10.9651 13.885 10.7451 13.885 10.4051V10.0151H13.875C13.875 10.0151 13.885 9.98505 13.885 9.96505V1.38505H13.875ZM10.275 1.62505C11.215 1.55505 12.225 1.67505 13.125 1.93505V9.61505C12.745 9.52505 12.345 9.49505 11.945 9.47505C11.885 9.47505 11.815 9.47505 11.755 9.46505C11.215 9.45505 10.675 9.49505 10.155 9.57505C9.355 9.69505 8.615 9.90505 8.005 10.1351V2.38505C8.575 1.94505 9.365 1.68505 10.275 1.62505ZM1.875 1.93505C2.775 1.67505 3.785 1.55505 4.725 1.62505C5.765 1.70505 6.665 2.01505 7.245 2.57505H7.265V10.2251C6.605 9.95505 5.765 9.70505 4.855 9.56505C4.335 9.48505 3.795 9.44505 3.255 9.45505C3.195 9.45505 3.125 9.45505 3.065 9.46505C2.665 9.48505 2.265 9.52505 1.885 9.60505V1.93505H1.875Z" fill="#5C5C5C"/>
</g>
</g>
<defs>
<clipPath id="clip0_6_4562">
<rect width="14" height="12" fill="white" transform="translate(0.5 0.280029)"/>
</clipPath>
<clipPath id="clip1_6_4562">
<rect width="14" height="12" fill="white" transform="translate(0.5 0.280029)"/>
</clipPath>
</defs>
</svg>
