<svg xmlns="http://www.w3.org/2000/svg" width="51" height="27" fill="none"><g clip-path="url(#a)"><g clip-path="url(#b)"><mask id="c" width="51" height="27" x="0" y="0" maskUnits="userSpaceOnUse" style="mask-type:luminance"><path fill="#fff" d="M.697.17h49.986v26.08H.697z"/></mask><g mask="url(#c)"><path fill="#843D8F" d="m16.332 13.21-3.6 1.964-3.342 5.47 13.626-7.433z"/><path fill="#DA003C" d="m26.617 7.603-3.6 1.963-3.34 5.47 13.622-7.433z"/><path fill="#F9B012" d="M23.018 5.64 19.676.17v26.08l3.342-5.47z"/><path fill="#EF7C00" d="m19.676.17 3.342 5.47 3.599 1.963H33.3z"/><path fill="#72B326" d="M19.676 11.385V26.25l3.342-5.469v-3.927z"/><path fill="#007033" d="m26.617 18.817-3.6 1.964-3.34 5.47 13.622-7.434z"/><path fill="#595492" d="M9.39 5.776v14.867l3.342-5.47v-3.926z"/><path fill="#008ECD" d="m19.673 11.385.002.003L9.39 5.778l3.342 5.47 13.883 7.57h6.682z"/></g></g></g><defs><clipPath id="a"><path fill="#fff" d="M.69.17h50v26.08h-50z"/></clipPath><clipPath id="b"><path fill="#fff" d="M.697.17h49.987v26.08H.697z"/></clipPath></defs></svg>