<?xml version="1.0" encoding="UTF-8"?>
<svg version="1.1" xmlns="http://www.w3.org/2000/svg" width="980" height="944">
<path d="M0 0 C10.73406698 9.0392143 17.87725341 19.51737574 24.05541992 32.04663086 C24.76441412 33.47456851 25.47351287 34.90245425 26.18270874 36.33029175 C26.53867001 37.04866589 26.89463127 37.76704002 27.26137924 38.50718307 C28.85658056 41.72122325 30.4659073 44.92812906 32.07543945 48.13500977 C32.70639438 49.39348393 33.33727824 50.65199373 33.96809387 51.91053772 C34.44601348 52.86394389 34.44601348 52.86394389 34.93358803 53.83661079 C37.05936461 58.07832776 39.18346384 62.32088503 41.30761433 66.56341648 C43.14500431 70.2330013 44.98314233 73.90220739 46.82299805 77.57055664 C54.15650726 92.19352079 61.46563355 106.81975513 68.47761536 121.60047913 C72.82539143 130.75046611 77.36112113 139.80293797 81.91635132 148.85101318 C94.64862965 174.14858549 94.64862965 174.14858549 100.5 186.5 C101.31249095 188.20963972 102.12499064 189.91927528 102.9375 191.62890625 C103.51371094 192.84151123 103.51371094 192.84151123 104.1015625 194.07861328 C104.50117187 194.9189209 104.90078125 195.75922852 105.3125 196.625 C105.76625 197.58003418 106.22 198.53506836 106.6875 199.51904297 C115.21685085 217.36867971 123.04975691 231.93966303 142.3125 239.625 C153.2963849 242.57577607 164.66021757 243.96359382 175.8996582 245.56420898 C177.83476894 245.84344056 179.76981562 246.12311637 181.70480347 246.40319824 C185.84519116 247.00166108 189.98597792 247.59725118 194.12709999 248.19061089 C200.6908865 249.13135851 207.25350736 250.08006873 213.81596375 251.03004456 C231.29229626 253.5586609 248.77012576 256.07686775 266.24862593 258.59045416 C277.74817397 260.24425771 289.24707173 261.90244235 300.7448222 263.56870133 C307.25222793 264.51139748 313.76056693 265.44725698 320.26971972 266.37780941 C324.33781123 266.96100053 328.40496125 267.55056413 332.4718895 268.14180756 C334.33978264 268.41208162 336.2080443 268.67982462 338.07671547 268.94466591 C368.6669995 273.28473914 395.51791925 280.92485753 415.13720703 306.42993164 C430.57282384 327.29380798 434.84613471 351.64194206 432.03125 377.17626953 C430.80967169 385.33689847 428.05106002 392.86874547 424.6875 400.375 C424.40583984 401.01187744 424.12417969 401.64875488 423.83398438 402.30493164 C417.19565451 415.99562083 405.71617639 426.6451671 395.04394531 437.17480469 C392.67762855 439.50974054 390.32235598 441.85538349 387.96875 444.203125 C386.44593631 445.71677368 384.92251972 447.2298161 383.3984375 448.7421875 C382.70551605 449.43085907 382.0125946 450.11953064 381.29867554 450.82907104 C378.04812883 454.03285576 374.75901584 457.14339096 371.30322266 460.12548828 C367.13188988 463.73155501 363.24869285 467.57884785 359.375 471.5 C358.65062744 472.22815918 357.92625488 472.95631836 357.17993164 473.70654297 C354.88831697 476.01025646 352.59999348 478.31719474 350.3125 480.625 C347.29464919 483.66964779 344.27336584 486.71082967 341.25 489.75 C340.23401733 490.77843018 340.23401733 490.77843018 339.19750977 491.82763672 C335.36578824 495.67870322 331.41863951 499.30772738 327.30639648 502.85595703 C323.84941423 505.92309226 320.62176935 509.21345222 317.375 512.5 C316.65062744 513.22815918 315.92625488 513.95631836 315.17993164 514.70654297 C312.88831697 517.01025646 310.59999348 519.31719474 308.3125 521.625 C305.29464919 524.66964779 302.27336584 527.71082967 299.25 530.75 C298.57267822 531.43562012 297.89535645 532.12124023 297.19750977 532.82763672 C293.34663805 536.6979501 289.38579333 540.36319525 285.25268555 543.92971802 C280.08799437 548.44248635 275.22335676 553.28801746 270.33105469 558.09155273 C268.99338047 559.39767803 267.6477219 560.69567943 266.29394531 561.98510742 C254.39012248 573.33374709 243.86920871 586.2544841 243.24485016 603.49278641 C243.15073688 609.29757568 243.80047527 614.74310717 244.80273438 620.45214844 C244.9626631 621.39828727 245.12259182 622.3444261 245.28736687 623.3192358 C245.81991956 626.4588668 246.36304976 629.59657011 246.90625 632.734375 C247.28950292 634.98042683 247.67210668 637.22658952 248.05410767 639.47285461 C249.08447192 645.5203641 250.12402804 651.56626062 251.16532135 657.61189651 C252.24693397 663.90107218 253.31997535 670.19170999 254.39404297 676.48217773 C256.80963466 690.61887808 259.23807884 704.75335373 261.66960144 718.88732147 C262.5021767 723.72774087 263.3340343 728.56828345 264.16584396 733.40883446 C268.57263468 759.05872592 268.57263468 759.05872592 272.99489784 784.70595264 C273.64071937 788.44394813 274.28590855 792.18205267 274.93110275 795.92015648 C275.36831727 798.45124167 275.80664075 800.98213305 276.24502563 803.51301575 C276.50731733 805.0321867 276.76955806 806.55136645 277.03173828 808.07055664 C277.36880295 810.01872032 277.36880295 810.01872032 277.712677 812.00624084 C282.15696607 838.8188369 279.2140071 864.27686072 263.23828125 886.8125 C248.57402762 906.49228051 228.41260583 918.08862647 204.55078125 923.21875 C178.32000827 926.50946217 157.18966985 918.44820517 134.375 906.5625 C132.71207271 905.70232994 131.04898516 904.84246965 129.38574219 903.98291016 C120.05021038 899.14726861 110.7734646 894.21762264 101.57641602 889.12280273 C93.40881089 884.61967942 85.11354371 880.37499957 76.8125 876.125 C67.62488593 871.42101676 58.46872266 866.68767927 49.4375 861.6875 C39.99830993 856.46301806 30.41715601 851.53576359 20.8125 846.625 C10.87710286 841.54456083 0.96827279 836.43711366 -8.8125 831.0625 C-9.67609131 830.58876953 -10.53968262 830.11503906 -11.42944336 829.62695312 C-14.63546441 827.86456076 -17.83894874 826.09790801 -21.03466797 824.31689453 C-33.04229172 817.64034034 -43.85612221 812.36289905 -57.875 812.1875 C-58.59937256 812.17710693 -59.32374512 812.16671387 -60.07006836 812.15600586 C-69.91235712 812.31728192 -78.31795423 816.12630501 -86.9375 820.5625 C-88.3750061 821.29146484 -88.3750061 821.29146484 -89.84155273 822.03515625 C-97.09995849 825.74248636 -104.24868207 829.63490034 -111.37988281 833.57983398 C-120.55113297 838.62019889 -129.86758232 843.3676093 -139.1875 848.125 C-149.96873399 853.62949432 -160.69751034 859.187719 -171.28515625 865.05859375 C-179.82522456 869.7640804 -188.50661873 874.18690858 -197.1875 878.625 C-206.79236477 883.5356135 -216.37182345 888.46556285 -225.8125 893.6875 C-234.29091896 898.35419279 -242.81308045 902.93456265 -251.38812256 907.42111206 C-252.80747951 908.16616987 -254.22447454 908.91574964 -255.63873291 909.67044067 C-280.31537545 922.82204116 -306.38765598 927.47226693 -333.53613281 919.34521484 C-354.42586794 912.35194219 -373.10709717 898.11521573 -383.6875 878.625 C-384.21859375 877.68140625 -384.7496875 876.7378125 -385.296875 875.765625 C-401.23180134 845.94680245 -393.91759811 813.42505119 -388.35749531 781.91783977 C-387.45792029 776.79351593 -386.58263287 771.66504095 -385.70452881 766.53700256 C-384.0401075 756.83827671 -382.35476613 747.14331435 -380.6614244 737.44960076 C-378.74906792 726.49644366 -376.85947391 715.53940089 -374.97216082 704.58190525 C-372.49873259 690.2221137 -370.0200664 675.8632653 -367.52216649 661.50770873 C-366.30008674 654.48430621 -365.08168112 647.46027565 -363.86697841 640.43559343 C-363.24239657 636.82446234 -362.61636483 633.21361429 -361.98381042 629.60387039 C-361.39186689 626.22070038 -360.80746685 622.83632842 -360.22558594 619.45141602 C-360.06299412 618.53468833 -359.9004023 617.61796064 -359.73288345 616.67345333 C-357.06004986 600.9374498 -360.74633617 587.74396677 -369.6875 574.625 C-372.17857559 571.65375358 -374.87407775 568.94418083 -377.6484375 566.23828125 C-378.397836 565.49217087 -379.1472345 564.74606049 -379.91934204 563.9773407 C-382.29112606 561.62115098 -384.67671745 559.2795045 -387.0625 556.9375 C-388.65451534 555.35699515 -390.24566856 553.77562141 -391.8359375 552.19335938 C-393.37683412 550.66588946 -394.91847617 549.13917109 -396.4609375 547.61328125 C-397.16640717 546.91519852 -397.87187683 546.21711578 -398.59872437 545.49787903 C-401.88883048 542.26980585 -405.21556539 539.12956008 -408.70556641 536.11791992 C-412.87356295 532.51381906 -416.75398027 528.66844629 -420.625 524.75 C-421.71155884 523.65776123 -421.71155884 523.65776123 -422.82006836 522.54345703 C-425.88292424 519.46443049 -428.93972311 516.37941677 -431.99707031 513.29492188 C-434.24594117 511.02784542 -436.49790238 508.76387034 -438.75 506.5 C-439.42732178 505.81437988 -440.10464355 505.12875977 -440.80249023 504.42236328 C-444.00126326 501.20744081 -447.23884849 498.10111907 -450.67382812 495.13867188 C-454.93351207 491.46315242 -458.89048655 487.5314324 -462.84375 483.53125 C-463.5903186 482.78089478 -464.33688721 482.03053955 -465.1060791 481.25744629 C-468.26451112 478.08283496 -471.41689279 474.90224084 -474.56982422 471.72216797 C-476.88819745 469.38559639 -479.2096552 467.05212001 -481.53125 464.71875 C-482.23044556 464.0112561 -482.92964111 463.30376221 -483.65002441 462.5748291 C-487.55459759 458.65112844 -491.56592888 454.93404969 -495.75723267 451.3192749 C-498.852428 448.60249486 -501.78502478 445.7288675 -504.71484375 442.8359375 C-505.34806046 442.21079254 -505.98127716 441.58564758 -506.63368225 440.94155884 C-507.96190629 439.62705039 -509.28866943 438.31106427 -510.61401367 436.99365234 C-511.94840506 435.67076293 -513.28724567 434.3523455 -514.63061523 433.03857422 C-534.22069117 413.87817891 -547.38879426 393.01141749 -548.15820312 365.02416992 C-548.35121391 342.63009315 -543.23523995 322.13114229 -528.6875 304.625 C-527.9759375 303.76261719 -527.264375 302.90023438 -526.53125 302.01171875 C-509.61509701 282.38540744 -488.24369445 274.28794968 -463.29833984 270.68212891 C-461.63569368 270.4317753 -459.97320826 270.18035222 -458.31087303 269.92794228 C-453.96861382 269.27256574 -449.62402362 268.63441665 -445.27831173 268.00238132 C-442.7527374 267.63450257 -440.22769994 267.26315791 -437.70282745 266.8904953 C-427.57379076 265.39642713 -417.44051014 263.93314436 -407.3051033 262.48298264 C-401.74388299 261.68719841 -396.18345298 260.88597812 -390.62313843 260.08389282 C-374.84751427 257.80883264 -359.07136354 255.53750274 -343.29345703 253.27832031 C-334.50178165 252.01942607 -325.71098588 250.75456557 -316.92111146 249.48315585 C-311.41196397 248.68660082 -305.90187058 247.8970981 -300.39092374 247.11309409 C-296.96087761 246.62329539 -293.53187836 246.12645117 -290.10312271 245.62770653 C-288.53314725 245.40071936 -286.96277 245.17648836 -285.39194489 244.95545769 C-257.49789785 241.1631977 -257.49789785 241.1631977 -235.6875 224.625 C-229.14608646 214.18296929 -223.7637144 203.05611178 -218.28881836 192.03344727 C-216.89173515 189.22118705 -215.4884077 186.41211618 -214.08398438 183.60351562 C-209.37172661 174.16012672 -204.74000635 164.68310942 -200.20703125 155.15234375 C-194.23240781 142.59319695 -187.9946775 130.17126008 -181.73974609 117.75 C-176.49625681 107.33026834 -171.30394518 96.89322774 -166.29296875 86.359375 C-160.70322259 74.60969423 -154.98271006 62.92761437 -149.1887207 51.27734375 C-148.05328749 48.98973391 -146.92217019 46.69997732 -145.79516602 44.40820312 C-144.12976961 41.02238358 -142.4511079 37.64343222 -140.76953125 34.265625 C-140.27661087 33.25711487 -139.78369049 32.24860474 -139.27583313 31.20953369 C-128.50087193 9.72300329 -110.8425719 -8.21093183 -87.7265625 -16.0390625 C-56.49729407 -25.63872089 -25.59616897 -20.18902216 0 0 Z M-92.6875 32.625 C-97.99202456 38.05752642 -101.67355926 43.66874657 -105.0625 50.4375 C-105.56595947 51.42194092 -106.06941895 52.40638184 -106.58813477 53.4206543 C-111.78855295 63.66461178 -116.77007509 74.01866562 -121.76171875 84.36547852 C-127.58488046 96.42466043 -133.55404091 108.40722015 -139.5625 120.375 C-145.24639213 131.69946192 -150.89905543 143.02756172 -156.29833984 154.49121094 C-161.72841612 165.94044577 -167.47537276 177.23581677 -173.16091919 188.55957031 C-178.56579443 199.32617666 -183.93265339 210.09907596 -189.0625 221 C-201.20213316 246.6006187 -216.3025666 266.52394749 -243.6875 276.625 C-254.69951903 280.28127679 -265.71954168 282.06701901 -277.16699219 283.69360352 C-279.09068691 283.97420897 -281.01425748 284.25566661 -282.93771362 284.53790283 C-288.12267317 285.29632918 -293.30925451 286.04306994 -298.49620724 286.78772473 C-303.95271344 287.57326845 -309.40757219 288.37009031 -314.86260986 289.16575623 C-325.19524726 290.67120673 -335.52922484 292.16723243 -345.86376691 293.65954584 C-360.98904469 295.84404463 -376.11235172 298.04211114 -391.23555374 300.2409277 C-393.48021676 300.5672718 -395.72488 300.89361439 -397.96954346 301.21995544 C-399.61552894 301.45929028 -399.61552894 301.45929028 -401.29476666 301.70346016 C-407.76391105 302.64377614 -414.2334681 303.58118419 -420.70342207 304.51591313 C-424.74916112 305.10063046 -428.79468804 305.68680689 -432.84018326 306.27320862 C-434.69665098 306.54193833 -436.55321384 306.81001194 -438.40988541 307.07732964 C-447.49333131 308.38534716 -456.569696 309.73059036 -465.628479 311.20079041 C-466.36878884 311.31808803 -467.10909868 311.43538566 -467.87184215 311.55623776 C-473.08897126 312.41945503 -477.63602579 313.67550811 -482.25 316.25 C-482.90145996 316.59627441 -483.55291992 316.94254883 -484.22412109 317.29931641 C-497.26241949 324.5608656 -504.5480397 336.58117656 -508.6875 350.625 C-511.36394648 363.78419518 -508.89756077 377.26399169 -501.6875 388.625 C-495.10431635 396.73719905 -487.44830634 404.01898976 -480.05786133 411.38500977 C-478.12139451 413.31609547 -476.19036044 415.25249882 -474.25976562 417.18945312 C-473.00552895 418.4430292 -471.75098223 419.69629516 -470.49609375 420.94921875 C-469.93127792 421.51605881 -469.3664621 422.08289886 -468.78453064 422.66691589 C-465.85721982 425.57747858 -462.86964062 428.36599215 -459.74438477 431.0637207 C-455.63059546 434.62565158 -451.79083965 438.41077055 -447.96875 442.28125 C-447.26657349 442.98721313 -446.56439697 443.69317627 -445.84094238 444.42053223 C-442.87366234 447.40397375 -439.91244637 450.3934071 -436.95068359 453.38232422 C-434.77131535 455.57990579 -432.58885053 457.77437938 -430.40625 459.96875 C-429.750802 460.63249634 -429.095354 461.29624268 -428.42004395 461.98010254 C-425.26773524 465.14882848 -422.07150466 468.20380382 -418.6875 471.125 C-414.58902306 474.6629547 -410.77166027 478.43019275 -406.96875 482.28125 C-405.91548523 483.3401947 -405.91548523 483.3401947 -404.84094238 484.42053223 C-401.87366234 487.40397375 -398.91244637 490.3934071 -395.95068359 493.38232422 C-393.77131535 495.57990579 -391.58885053 497.77437938 -389.40625 499.96875 C-388.750802 500.63249634 -388.095354 501.29624268 -387.42004395 501.98010254 C-383.64024078 505.77959093 -379.7428917 509.36210109 -375.68685913 512.86386108 C-369.90765363 517.95448415 -364.51733386 523.48826346 -359.05200195 528.91040039 C-357.52449512 530.42138312 -355.99164833 531.9269876 -354.45336914 533.42700195 C-334.2852014 553.09836359 -320.06485099 575.68219986 -319.62965393 604.64945984 C-319.6223683 609.38120482 -320.0720514 613.93380638 -320.74584961 618.61254883 C-320.87519111 619.53274968 -321.0045326 620.45295053 -321.13779354 621.40103626 C-323.50446634 637.72994214 -326.3994988 653.98331147 -329.18562055 670.24451423 C-330.04274369 675.25166567 -330.89574546 680.25951932 -331.74925232 685.26728821 C-333.17996921 693.65833856 -334.61331493 702.04893612 -336.04858398 710.43920898 C-338.06846632 722.24703639 -340.08344437 734.05569689 -342.09750473 745.86451852 C-343.6695135 755.0804155 -345.24286695 764.29608299 -346.81640625 773.51171875 C-346.98381482 774.49226345 -347.1512234 775.47280815 -347.32370496 776.48306632 C-348.28758555 782.12824871 -349.25214792 787.77331385 -350.21772003 793.41820717 C-350.50895406 795.12126959 -350.79999661 796.82436477 -351.09082603 798.52749634 C-351.49009282 800.86536576 -351.88999721 803.20312476 -352.29029846 805.54081726 C-352.41267195 806.25634305 -352.53504544 806.97186885 -352.66112721 807.70907724 C-353.50287978 812.60938637 -354.39120415 817.49944154 -355.32697964 822.38264179 C-355.93241347 826.14830846 -356.02953195 829.8799884 -356 833.6875 C-355.99154053 834.85454468 -355.99154053 834.85454468 -355.98291016 836.04516602 C-355.85741908 841.99356718 -355.14745265 847.15324222 -352.6875 852.625 C-352.10162109 853.95724609 -352.10162109 853.95724609 -351.50390625 855.31640625 C-345.38996633 867.76944535 -334.96054078 876.88789145 -321.875 881.4375 C-301.67454871 887.69092301 -285.07170488 880.34563162 -267.32910156 871.03125 C-262.1766977 868.28838066 -257.06462533 865.47253882 -251.95532227 862.65039062 C-243.12216462 857.79896387 -234.16014386 853.21102061 -225.1875 848.625 C-215.62392955 843.73594224 -206.084036 838.83059272 -196.6875 833.625 C-186.53044114 827.99808477 -176.20210897 822.72243909 -165.86468506 817.43746948 C-157.11755789 812.9631597 -148.40746924 808.44984145 -139.8125 803.6875 C-130.70818718 798.67495249 -121.54248129 793.78061854 -112.32879639 788.97238159 C-110.72361781 788.13186181 -109.12115213 787.2861354 -107.52178955 786.43460083 C-84.27546818 774.0738526 -58.64616909 767.8908663 -32.6875 775.625 C-22.18934085 779.13300026 -12.53370444 784.07734529 -2.75 789.1875 C-1.18197163 790.0002433 0.38622697 790.81265825 1.95458984 791.62475586 C11.01577728 796.32778762 20.01459443 801.13268827 28.94702148 806.07641602 C37.14986072 810.59388809 45.4778455 814.85769987 53.8125 819.125 C63.00010358 823.82900566 72.1562762 828.5623201 81.1875 833.5625 C90.62669007 838.78698194 100.20784399 843.71423641 109.8125 848.625 C119.74786805 853.70542429 129.65715609 858.81215165 139.4375 864.1875 C140.29964111 864.66123047 141.16178223 865.13496094 142.05004883 865.62304688 C143.68721186 866.52424338 145.32402823 867.42607005 146.96044922 868.32861328 C161.64169328 876.57483754 161.64169328 876.57483754 177.3125 882.625 C177.90546875 882.81449219 178.4984375 883.00398437 179.109375 883.19921875 C193.19549128 885.92153555 206.94925879 882.80657147 218.99609375 875.28515625 C229.73244789 867.59046736 237.83887594 856.77315746 240.3125 843.625 C241.44582449 830.21523739 239.48448908 817.22923134 237.09960938 804.078125 C236.75334205 802.09970391 236.40856378 800.12102173 236.06513977 798.1421051 C235.32928582 793.91850787 234.58380531 789.69677142 233.8306427 785.47622681 C232.63552867 778.77476856 231.46687895 772.06885247 230.30212402 765.36206055 C227.40522106 748.70424772 224.47772384 732.0518324 221.53717041 715.40167236 C219.25034819 702.45222355 216.97382309 689.50115331 214.72865343 676.5444088 C213.7638141 670.98187504 212.79016549 665.421216 211.7943573 659.86413574 C201.05173102 599.86853625 201.05173102 599.86853625 209.3125 576.625 C209.68632813 575.56667969 210.06015625 574.50835938 210.4453125 573.41796875 C215.65331221 559.9840887 223.29699163 549.74672989 233.3125 539.625 C234.15989746 538.76390625 235.00729492 537.9028125 235.88037109 537.015625 C238.76624186 534.08560623 241.66211993 531.1656519 244.5625 528.25 C245.03390411 527.77564514 245.50530823 527.30129028 245.99099731 526.81256104 C247.37109001 525.42661782 248.75581977 524.04529706 250.140625 522.6640625 C250.9440332 521.86178223 251.74744141 521.05950195 252.57519531 520.23291016 C254.73170165 518.17834356 256.91444017 516.21997807 259.16699219 514.27490234 C263.22863558 510.7464695 267.03428459 507.01520119 270.8125 503.1875 C271.49248047 502.50373291 272.17246094 501.81996582 272.87304688 501.11547852 C275.02200926 498.95442945 277.16767279 496.79015274 279.3125 494.625 C282.14283837 491.76783983 284.97662673 488.91416546 287.8125 486.0625 C288.76286133 485.09969116 288.76286133 485.09969116 289.73242188 484.11743164 C293.46508408 480.36469609 297.32497878 476.84147373 301.33007812 473.38256836 C304.63040765 470.45657424 307.71516702 467.3254008 310.8125 464.1875 C311.49248047 463.50373291 312.17246094 462.81996582 312.87304688 462.11547852 C315.02200926 459.95442945 317.16767279 457.79015274 319.3125 455.625 C322.14283837 452.76783983 324.97662673 449.91416546 327.8125 447.0625 C328.76286133 446.09969116 328.76286133 446.09969116 329.73242188 445.11743164 C332.83158598 442.00160099 335.97900104 439.00414375 339.3059082 436.1315918 C343.36563899 432.62553045 347.15074516 428.89787445 350.91796875 425.08203125 C351.60506424 424.39114914 352.29215973 423.70026703 353.00007629 422.9884491 C355.16919396 420.80724197 357.33500496 418.62279866 359.5 416.4375 C362.36556682 413.54525607 365.23448825 410.65640025 368.10546875 407.76953125 C369.07905586 406.78349663 369.07905586 406.78349663 370.0723114 405.77754211 C373.34236173 402.48991275 376.65057533 399.48214665 380.3125 396.625 C389.60253764 386.08573382 394.73413273 373.46506661 394.5234375 359.390625 C393.42496863 344.98847761 386.80463882 332.38512914 376.3125 322.625 C366.66943304 314.77520514 355.96198926 312.04343654 343.87084961 310.26367188 C342.52032794 310.05635956 341.16993637 309.84819836 339.81966305 309.6392746 C335.32007379 308.94860161 330.81654867 308.28585861 326.3125 307.625 C324.70441276 307.38765463 323.09633618 307.150237 321.48826981 306.91275024 C310.75036462 305.33039901 300.00717073 303.78569053 289.2626667 302.24888611 C283.23561953 301.38651618 277.20951323 300.51768803 271.18357849 299.64758301 C270.15570664 299.49919527 269.12783478 299.35080752 268.06881529 299.19792318 C265.97186954 298.89519533 263.87492532 298.59245692 261.77798259 298.28970814 C247.80553763 296.27275729 233.83246692 294.2603397 219.85717773 292.26318359 C210.34609814 290.90393999 200.83642516 289.53527672 191.32823223 288.15598059 C186.32576019 287.4306869 181.32272151 286.71005441 176.31790352 286.00111389 C171.6233752 285.33607462 166.93080913 284.65856403 162.23939514 283.97191048 C160.53260359 283.72428753 158.82516788 283.48105232 157.117033 283.24287224 C137.09950779 280.44570023 117.91781601 275.1437295 102.3125 261.625 C101.57644531 261.03203125 100.84039063 260.4390625 100.08203125 259.828125 C89.8921723 251.33949896 83.3102407 240.53705715 77.4375 228.8125 C76.90253906 227.77158203 76.36757813 226.73066406 75.81640625 225.65820312 C72.12246675 218.41173945 68.61197985 211.08250554 65.1171875 203.73828125 C59.34734624 191.61665767 53.3485776 179.61574374 47.3125 167.625 C40.90415301 154.89473845 34.57120738 142.14035933 28.45458984 129.26708984 C23.23317318 118.30678516 17.77109623 107.46856978 12.3125 96.625 C10.28908387 92.60545852 8.26786297 88.58483233 6.25 84.5625 C5.75685303 83.58015381 5.26370605 82.59780762 4.75561523 81.58569336 C0.76349806 73.60080318 -3.09527256 65.55549097 -6.85961914 57.46069336 C-14.45713276 41.32021742 -23.21751036 28.51293873 -40.2890625 21.56640625 C-58.42645117 15.54939953 -78.74678459 19.2702341 -92.6875 32.625 Z " fill="#070707" transform="translate(547.6875,20.375)"/>
<path d="M0 0 C0.99 0.495 0.99 0.495 2 1 C-23.08 26.08 -48.16 51.16 -74 77 C-74 68.08332532 -57.58301228 56.48131069 -51.3125 50.1875 C-50.81603973 49.68827026 -50.31957947 49.18904053 -49.80807495 48.67468262 C-48.35034534 47.21104008 -46.88873179 45.75139115 -45.42578125 44.29296875 C-44.57411377 43.4424292 -43.72244629 42.59188965 -42.8449707 41.71557617 C-40.65265229 39.62296846 -38.43886365 37.62818046 -36.1472168 35.64941406 C-31.9917349 32.04129098 -28.09369649 28.22171648 -24.21875 24.31640625 C-23.17031921 23.26585304 -23.17031921 23.26585304 -22.10070801 22.19407654 C-19.89808461 19.98591542 -17.69898919 17.77427963 -15.5 15.5625 C-13.99502492 14.05250186 -12.48981865 12.5427341 -10.984375 11.03320312 C-7.32024171 7.35812359 -3.6592652 3.67992644 0 0 Z " fill="#6A6A6A" transform="translate(843,498)"/>
<path d="M0 0 C0.66 0.33 1.32 0.66 2 1 C-3.61 6.61 -9.22 12.22 -15 18 C-15.66 17.67 -16.32 17.34 -17 17 C-15.29657414 15.09955869 -13.58752883 13.20471126 -11.875 11.3125 C-11.400625 10.78205078 -10.92625 10.25160156 -10.4375 9.70507812 C-7.18500869 6.12294242 -3.77952775 3.02250068 0 0 Z " fill="#636363" transform="translate(35,309)"/>
<path d="M0 0 C0.66 0.33 1.32 0.66 2 1 C-3.61 6.61 -9.22 12.22 -15 18 C-15 13.78193333 -13.14807199 12.61332709 -10.3125 9.5625 C-9.44238281 8.61503906 -8.57226562 7.66757812 -7.67578125 6.69140625 C-5.23784139 4.23923024 -2.74711696 2.0937486 0 0 Z " fill="#6C6C6C" transform="translate(435,18)"/>
</svg>
