<svg xmlns="http://www.w3.org/2000/svg" width="24" height="24" fill="none"><g clip-path="url(#a)"><g clip-path="url(#b)"><path fill="#121212" fill-rule="evenodd" d="M.387 12.654c0 6.167 4.999 11.167 11.166 11.167s11.167-5 11.167-11.167-5-11.167-11.167-11.167S.387 6.487.387 12.654m9.119 5.118.19-2.846 5.178-4.673c.227-.202-.05-.3-.351-.117l-6.39 4.032-2.761-.862c-.596-.182-.6-.592.134-.887l10.756-4.147c.491-.223.965.118.778.87l-1.832 8.632c-.128.613-.498.76-1.012.477l-2.79-2.062-1.342 1.304-.012.012c-.15.146-.274.267-.546.267" clip-rule="evenodd"/></g></g><defs><clipPath id="a"><path fill="#fff" d="M.22.92h23v23h-23z"/></clipPath><clipPath id="b"><path fill="#fff" d="M.22.92h23v23h-23z"/></clipPath></defs></svg>