<svg xmlns="http://www.w3.org/2000/svg" width="24" height="24" fill="none"><g clip-path="url(#a)"><g clip-path="url(#b)"><path fill="#121212" fill-rule="evenodd" d="M12.137 1.487C5.97 1.487.97 6.487.97 12.654s5 11.167 11.167 11.167 11.166-5 11.166-11.167-5-11.167-11.166-11.167m-.311 9.463-.024-.386c-.07-1 .547-1.916 1.523-2.27.36-.127.969-.143 1.367-.033.157.048.453.205.664.347l.383.26.422-.133c.234-.07.546-.19.687-.269.133-.07.25-.11.25-.086 0 .134-.289.591-.531.843-.328.355-.234.387.43.15.398-.134.406-.134.328.016-.047.08-.29.355-.547.607-.438.434-.461.481-.461.844 0 .56-.266 1.727-.531 2.366-.492 1.198-1.547 2.436-2.601 3.06-1.484.875-3.46 1.095-5.124.583-.555-.174-1.508-.615-1.508-.694 0-.024.29-.055.64-.063a4.4 4.4 0 0 0 2.094-.584l.422-.252-.484-.166c-.688-.236-1.305-.78-1.461-1.293-.047-.166-.031-.173.406-.173l.453-.008-.383-.182c-.453-.228-.867-.615-1.07-1.009-.148-.284-.335-1.002-.28-1.057.015-.023.179.024.366.087.54.197.61.15.297-.18-.586-.6-.765-1.49-.484-2.335l.133-.379.515.513c1.055 1.033 2.297 1.648 3.718 1.83l.39.046z" clip-rule="evenodd"/></g></g><defs><clipPath id="a"><path fill="#fff" d="M.72.92h23v23h-23z"/></clipPath><clipPath id="b"><path fill="#fff" d="M.72.92h23v23h-23z"/></clipPath></defs></svg>