<svg xmlns="http://www.w3.org/2000/svg" width="28" height="29" fill="none"><g clip-path="url(#a)"><mask id="b" width="26" height="26" x="1" y="1" maskUnits="userSpaceOnUse" style="mask-type:luminance"><path fill="#fff" d="M1.84 1.475h25.104V26.58H1.84z"/></mask><g mask="url(#b)"><path fill="#121212" d="M5.465 26.678q-2.97 0-2.97-2.03 0-1.353.815-2.858.828-1.521 2.375-2.86 1.547-1.34 3.743-2.169 2.195-.843 4.972-.842 2.761 0 4.957.842 2.195.829 3.742 2.169 1.548 1.339 2.362 2.858.828 1.506.828 2.859 0 2.03-2.983 2.03H5.465zm-.415-1.603h18.699q.47 0 .649-.138.192-.124.193-.469 0-.966-.676-2.169-.677-1.2-1.989-2.278-1.299-1.091-3.204-1.795-1.892-.705-4.322-.705-2.445 0-4.35.705-1.893.705-3.204 1.796Q5.548 21.098 4.87 22.3q-.678 1.203-.677 2.168 0 .344.18.47.193.137.676.137m9.363-10.597a5.24 5.24 0 0 1-2.927-.857 6.3 6.3 0 0 1-2.1-2.292q-.773-1.45-.773-3.203-.014-1.7.773-3.107a6.25 6.25 0 0 1 2.1-2.252 5.3 5.3 0 0 1 2.927-.855 5.3 5.3 0 0 1 2.914.842 6 6 0 0 1 2.1 2.237q.786 1.395.786 3.121 0 1.767-.787 3.204a6.26 6.26 0 0 1-2.099 2.305 5.2 5.2 0 0 1-2.914.857m0-1.615q1.132 0 2.058-.636a4.4 4.4 0 0 0 1.477-1.713q.553-1.077.553-2.402 0-1.284-.553-2.32a4.4 4.4 0 0 0-1.477-1.658 3.67 3.67 0 0 0-2.058-.607 3.7 3.7 0 0 0-2.072.622 4.5 4.5 0 0 0-1.477 1.67q-.552 1.036-.552 2.307 0 1.34.552 2.416c.343.681.851 1.265 1.477 1.7.613.41 1.335.625 2.072.62"/></g></g><defs><clipPath id="a"><path fill="#fff" d="M0 .5h28v28H0z"/></clipPath></defs></svg>