<svg xmlns="http://www.w3.org/2000/svg" width="51" height="27" fill="none"><g clip-path="url(#a)"><g clip-path="url(#b)"><g clip-path="url(#c)" style="mix-blend-mode:multiply"><path fill="#fff" d="M.697.17h49.986v26.08H.697z"/><path fill="#172B85" fill-rule="evenodd" d="M15.269 19.305h-3.34L9.422 9.7c-.12-.442-.372-.832-.744-1.017a10.8 10.8 0 0 0-3.063-1.016v-.37h5.383c.744 0 1.301.555 1.393 1.2l1.301 6.93 3.34-8.13h3.249l-5.013 12.01m6.87 0h-3.156l2.598-12.01h3.156zm6.682-8.682c.092-.647.65-1.017 1.3-1.017 1.02-.093 2.134.093 3.063.554l.557-2.586a8 8 0 0 0-2.877-.554c-3.064 0-5.292 1.662-5.292 3.971 0 1.756 1.578 2.679 2.692 3.234 1.207.554 1.67.924 1.578 1.478 0 .831-.929 1.2-1.856 1.2-1.115 0-2.229-.276-3.25-.738l-.555 2.586c1.113.462 2.32.648 3.433.648 3.434.091 5.57-1.572 5.57-4.067 0-3.14-4.363-3.325-4.363-4.71m15.407 8.682-2.505-12.01H39.03c-.557 0-1.115.37-1.3.924l-4.64 11.088h3.248l.649-1.755h3.991l.372 1.755h2.877zm-4.733-8.775.927 4.527h-2.598z" clip-rule="evenodd"/></g></g></g><defs><clipPath id="a"><path fill="#fff" d="M.69.17h50v26.08h-50z"/></clipPath><clipPath id="b"><path fill="#fff" d="M.69.17h50v26.08h-50z"/></clipPath><clipPath id="c"><path fill="#fff" d="M.697.17h49.987v26.08H.697z"/></clipPath></defs></svg>