<svg xmlns="http://www.w3.org/2000/svg" width="24" height="24" fill="none"><g clip-path="url(#a)"><g fill-rule="evenodd" clip-path="url(#b)" clip-rule="evenodd"><path fill="#000" d="M8.69.92h7.06c6.444 0 7.97 1.526 7.97 7.97v7.06c0 6.444-1.526 7.97-7.97 7.97H8.69c-6.444 0-7.97-1.526-7.97-7.97V8.89C.72 2.445 2.246.92 8.69.92"/><path fill="#fff" d="M19.519 8.26c.114-.356 0-.616-.503-.616h-1.673c-.421 0-.616.227-.73.47 0 0-.86 2.078-2.06 3.426-.39.389-.569.52-.78.52-.114 0-.26-.131-.26-.488V8.245c0-.422-.13-.617-.487-.617h-2.63c-.259 0-.421.194-.421.389 0 .406.6.504.665 1.64v2.467c0 .536-.097.633-.308.633-.568 0-1.948-2.094-2.776-4.48-.162-.47-.324-.65-.747-.65H5.122c-.487 0-.569.228-.569.471 0 .438.569 2.645 2.645 5.568 1.38 1.997 3.345 3.067 5.114 3.067 1.071 0 1.2-.242 1.2-.649v-1.508c0-.487.098-.568.44-.568.243 0 .681.13 1.671 1.087 1.137 1.137 1.331 1.656 1.965 1.656h1.671c.487 0 .714-.243.584-.715-.146-.47-.697-1.152-1.412-1.963-.39-.455-.974-.959-1.152-1.201-.243-.325-.18-.455 0-.748-.016 0 2.029-2.888 2.24-3.862z"/></g></g><defs><clipPath id="a"><path fill="#fff" d="M.72.92h23v23h-23z"/></clipPath><clipPath id="b"><path fill="#fff" d="M.72.44h23v23.958h-23z"/></clipPath></defs></svg>