<svg xmlns="http://www.w3.org/2000/svg" width="28" height="29" fill="none"><g clip-path="url(#a)"><path fill="#121212" fill-rule="evenodd" d="M7.807 3.078c-1.311.175-2.378.565-3.343 1.224A7.85 7.85 0 0 0 1.36 8.543c-.961 3.155-.01 6.41 2.983 10.198.578.732 2.49 2.755 3.311 3.505a46.5 46.5 0 0 0 4.652 3.718c1.483 1.037 1.649 1.109 2.085.899.332-.16 2.307-1.568 3.322-2.368 1.834-1.446 3.141-2.639 4.559-4.159 2.703-2.898 4.17-5.442 4.633-8.029.127-.713.127-2.09 0-2.774-.606-3.239-2.86-5.64-5.95-6.34-.686-.154-2.11-.166-2.8-.023-1.4.292-2.619.925-3.7 1.923l-.445.41-.47-.43q-.393-.36-.82-.677c-.816-.575-1.909-1.041-2.863-1.221-.443-.084-1.705-.144-2.05-.097m1.45 1.732c1.588.231 2.882 1.013 3.95 2.385.32.411.52.547.803.547.286 0 .486-.136.793-.541.636-.837 1.297-1.397 2.164-1.833 2.94-1.478 6.434-.178 7.846 2.917 1.322 2.9.4 6.1-2.865 9.943-1.724 2.03-4.654 4.6-7.493 6.573l-.444.309-.725-.51c-4.716-3.322-8.349-7.106-9.802-10.21-1.062-2.27-1.136-4.258-.228-6.194.34-.725.652-1.162 1.266-1.77 1.264-1.254 3.05-1.863 4.735-1.616" clip-rule="evenodd"/></g><defs><clipPath id="a"><path fill="#fff" d="M0 .5h28v28H0z"/></clipPath></defs></svg>