<svg xmlns="http://www.w3.org/2000/svg" width="24" height="24" fill="none"><g clip-path="url(#a)"><g fill="#121212" clip-path="url(#b)"><path fill-rule="evenodd" d="M12.16 1.637c-6.167 0-11.167 5-11.167 11.166 0 6.168 5 11.167 11.167 11.167s11.167-5 11.167-11.167-5-11.166-11.167-11.166m4.654 7.328c.512.14.916.555 1.053 1.08.249.955.249 2.945.249 2.945s0 1.99-.25 2.943a1.51 1.51 0 0 1-1.052 1.082c-.93.255-4.654.255-4.654.255s-3.725 0-4.653-.255a1.51 1.51 0 0 1-1.054-1.082c-.248-.953-.248-2.943-.248-2.943s0-1.99.248-2.944c.137-.526.541-.94 1.054-1.081.928-.256 4.653-.256 4.653-.256s3.725 0 4.654.256" clip-rule="evenodd"/><path d="M11.043 15.037v-3.724l2.978 1.862z"/></g></g><defs><clipPath id="a"><path fill="#fff" d="M.22.92h23v23h-23z"/></clipPath><clipPath id="b"><path fill="#fff" d="M.22.92h23v23h-23z"/></clipPath></defs></svg>